<svg width="20" height="20" viewBox="0 0 20 20" fill="none" xmlns="http://www.w3.org/2000/svg">
<mask id="mask0_623_1259" style="mask-type:luminance" maskUnits="userSpaceOnUse" x="0" y="0" width="20" height="20">
<path d="M0 0H20V20H0V0Z" fill="white"/>
</mask>
<g mask="url(#mask0_623_1259)">
<path d="M2.83097 2.82669C6.45697 -0.785315 10.425 -0.423815 13.6805 2.82669C13.913 3.05969 14.159 3.27819 14.3925 3.51119C17.144 6.26719 17.8175 9.53968 15.7755 12.6707C15.968 12.8152 16.1685 12.9712 16.382 13.1412C18.095 14.4987 21.0135 16.7782 18.9045 18.8867C16.819 20.9722 14.4755 18.0812 13.1365 16.3817C12.9755 16.1774 12.8165 15.9719 12.6595 15.7652C9.53847 17.7762 6.28447 17.0972 3.54297 14.3552C3.30997 14.1227 3.06397 13.9042 2.83097 13.6712C-0.419026 10.4207 -0.795026 6.43869 2.83097 2.82669Z" fill="#00034A" stroke="#00034A" stroke-width="0.5" stroke-miterlimit="10" stroke-linecap="round" stroke-linejoin="round"/>
<path d="M13.68 2.82669C10.425 -0.423815 6.45697 -0.785315 2.83097 2.82669C-0.795026 6.43819 -0.419026 10.4207 2.83097 13.6712C5.61947 16.4592 8.93698 17.1142 12.106 14.9762C12.385 15.4192 12.722 15.8522 13.136 16.3822C16.146 20.2007 17.3835 19.0112 18.1925 18.2022C19.0015 17.3932 20.186 16.1557 16.382 13.1412C15.862 12.7272 15.419 12.3952 14.9805 12.1112C17.1235 8.94219 16.468 5.62018 13.68 2.82669Z" fill="#E7B560" stroke="#00034A" stroke-width="0.5" stroke-miterlimit="10" stroke-linecap="round" stroke-linejoin="round"/>
<path d="M8.25795 13.0595C9.53377 13.0595 10.7573 12.5527 11.6595 11.6505C12.5616 10.7484 13.0684 9.5248 13.0684 8.24898C13.0684 6.97315 12.5616 5.74958 11.6595 4.84744C10.7573 3.9453 9.53377 3.43848 8.25795 3.43848C6.98212 3.43848 5.75856 3.9453 4.85641 4.84744C3.95427 5.74958 3.44745 6.97315 3.44745 8.24898C3.44745 9.5248 3.95427 10.7484 4.85641 11.6505C5.75856 12.5527 6.98212 13.0595 8.25795 13.0595Z" fill="white" stroke="#00034A" stroke-width="0.5" stroke-miterlimit="10" stroke-linecap="round" stroke-linejoin="round"/>
<path d="M7.13599 5.30671C7.44775 5.03549 7.84334 4.8798 8.25632 4.86578C8.66931 4.85176 9.07455 4.98026 9.40399 5.22971" fill="white"/>
<path d="M7.13599 5.30671C7.44775 5.03549 7.84334 4.8798 8.25632 4.86578C8.66931 4.85176 9.07455 4.98026 9.40399 5.22971" stroke="#00034A" stroke-width="0.5" stroke-miterlimit="10" stroke-linecap="round" stroke-linejoin="round"/>
</g>
</svg>
